<mxfile host="app.diagrams.net" modified="2023-08-05T01:55:55.020Z" agent="Mozilla/5.0 (Windows NT 10.0; Win64; x64) AppleWebKit/537.36 (KHTML, like Gecko) Chrome/115.0.0.0 Safari/537.36" etag="Mg7NJNZ451qhAGrW696a" version="21.6.6" type="github">
  <diagram name="第 1 页" id="tNOFmXezS_4E29bfNKuJ">
    <mxGraphModel dx="1401" dy="300" grid="1" gridSize="10" guides="1" tooltips="1" connect="1" arrows="1" fold="1" page="1" pageScale="1" pageWidth="827" pageHeight="1169" math="0" shadow="0">
      <root>
        <mxCell id="0" />
        <mxCell id="1" parent="0" />
        <mxCell id="ZDzOGTmrpcQAj9KrEOxm-122" value="" style="whiteSpace=wrap;html=1;aspect=fixed;strokeWidth=0;" vertex="1" parent="1">
          <mxGeometry x="-10" y="250" width="10" height="10" as="geometry" />
        </mxCell>
        <mxCell id="ZDzOGTmrpcQAj9KrEOxm-123" value="" style="whiteSpace=wrap;html=1;aspect=fixed;strokeWidth=0;" vertex="1" parent="1">
          <mxGeometry x="-10" y="260" width="10" height="10" as="geometry" />
        </mxCell>
        <mxCell id="ZDzOGTmrpcQAj9KrEOxm-124" value="" style="whiteSpace=wrap;html=1;aspect=fixed;strokeWidth=0;" vertex="1" parent="1">
          <mxGeometry x="-10" y="270" width="10" height="10" as="geometry" />
        </mxCell>
        <mxCell id="ZDzOGTmrpcQAj9KrEOxm-125" value="" style="whiteSpace=wrap;html=1;aspect=fixed;strokeWidth=0;" vertex="1" parent="1">
          <mxGeometry x="-10" y="310" width="10" height="10" as="geometry" />
        </mxCell>
        <mxCell id="ZDzOGTmrpcQAj9KrEOxm-126" value="" style="whiteSpace=wrap;html=1;aspect=fixed;strokeWidth=0;" vertex="1" parent="1">
          <mxGeometry x="-10" y="280" width="10" height="10" as="geometry" />
        </mxCell>
        <mxCell id="ZDzOGTmrpcQAj9KrEOxm-127" value="" style="whiteSpace=wrap;html=1;aspect=fixed;strokeWidth=0;" vertex="1" parent="1">
          <mxGeometry x="-10" y="290" width="10" height="10" as="geometry" />
        </mxCell>
        <mxCell id="ZDzOGTmrpcQAj9KrEOxm-128" value="" style="whiteSpace=wrap;html=1;aspect=fixed;strokeWidth=0;" vertex="1" parent="1">
          <mxGeometry x="-10" y="300" width="10" height="10" as="geometry" />
        </mxCell>
        <mxCell id="ZDzOGTmrpcQAj9KrEOxm-129" value="" style="whiteSpace=wrap;html=1;aspect=fixed;strokeWidth=0;" vertex="1" parent="1">
          <mxGeometry x="-30" y="240" width="10" height="10" as="geometry" />
        </mxCell>
        <mxCell id="ZDzOGTmrpcQAj9KrEOxm-130" value="" style="whiteSpace=wrap;html=1;aspect=fixed;strokeWidth=0;" vertex="1" parent="1">
          <mxGeometry x="-30" y="250" width="10" height="10" as="geometry" />
        </mxCell>
        <mxCell id="ZDzOGTmrpcQAj9KrEOxm-131" value="" style="whiteSpace=wrap;html=1;aspect=fixed;strokeWidth=0;" vertex="1" parent="1">
          <mxGeometry x="-30" y="260" width="10" height="10" as="geometry" />
        </mxCell>
        <mxCell id="ZDzOGTmrpcQAj9KrEOxm-132" value="" style="whiteSpace=wrap;html=1;aspect=fixed;strokeWidth=0;" vertex="1" parent="1">
          <mxGeometry x="-30" y="300" width="10" height="10" as="geometry" />
        </mxCell>
        <mxCell id="ZDzOGTmrpcQAj9KrEOxm-133" value="" style="whiteSpace=wrap;html=1;aspect=fixed;strokeWidth=0;" vertex="1" parent="1">
          <mxGeometry x="-30" y="270" width="10" height="10" as="geometry" />
        </mxCell>
        <mxCell id="ZDzOGTmrpcQAj9KrEOxm-134" value="" style="whiteSpace=wrap;html=1;aspect=fixed;strokeWidth=0;" vertex="1" parent="1">
          <mxGeometry x="-30" y="280" width="10" height="10" as="geometry" />
        </mxCell>
        <mxCell id="ZDzOGTmrpcQAj9KrEOxm-135" value="" style="whiteSpace=wrap;html=1;aspect=fixed;strokeWidth=0;" vertex="1" parent="1">
          <mxGeometry x="-30" y="290" width="10" height="10" as="geometry" />
        </mxCell>
        <mxCell id="ZDzOGTmrpcQAj9KrEOxm-1" value="MLP" style="rounded=0;whiteSpace=wrap;html=1;fillColor=#dae8fc;strokeColor=#6c8ebf;" vertex="1" parent="1">
          <mxGeometry x="240" y="330" width="420" height="50" as="geometry" />
        </mxCell>
        <mxCell id="ZDzOGTmrpcQAj9KrEOxm-12" style="edgeStyle=orthogonalEdgeStyle;rounded=0;orthogonalLoop=1;jettySize=auto;html=1;exitX=0.5;exitY=1;exitDx=0;exitDy=0;entryX=0.316;entryY=0;entryDx=0;entryDy=0;entryPerimeter=0;" edge="1" parent="1" source="ZDzOGTmrpcQAj9KrEOxm-2" target="ZDzOGTmrpcQAj9KrEOxm-1">
          <mxGeometry relative="1" as="geometry" />
        </mxCell>
        <mxCell id="ZDzOGTmrpcQAj9KrEOxm-2" value="" style="rounded=0;whiteSpace=wrap;html=1;" vertex="1" parent="1">
          <mxGeometry x="240" y="280" width="270" height="30" as="geometry" />
        </mxCell>
        <mxCell id="ZDzOGTmrpcQAj9KrEOxm-3" value="d&lt;sub&gt;t&lt;/sub&gt;" style="rounded=0;whiteSpace=wrap;html=1;" vertex="1" parent="1">
          <mxGeometry x="250" y="285" width="40" height="20" as="geometry" />
        </mxCell>
        <mxCell id="ZDzOGTmrpcQAj9KrEOxm-4" value="c&lt;sub&gt;t&lt;/sub&gt;" style="rounded=0;whiteSpace=wrap;html=1;" vertex="1" parent="1">
          <mxGeometry x="300" y="285" width="40" height="20" as="geometry" />
        </mxCell>
        <mxCell id="ZDzOGTmrpcQAj9KrEOxm-5" value="SG&lt;sub&gt;t&lt;/sub&gt;" style="rounded=0;whiteSpace=wrap;html=1;" vertex="1" parent="1">
          <mxGeometry x="355" y="285" width="40" height="20" as="geometry" />
        </mxCell>
        <mxCell id="ZDzOGTmrpcQAj9KrEOxm-6" value="{rm&lt;sub&gt;t&lt;/sub&gt;}m∈M&#39;" style="rounded=0;whiteSpace=wrap;html=1;" vertex="1" parent="1">
          <mxGeometry x="414" y="285" width="66" height="20" as="geometry" />
        </mxCell>
        <mxCell id="ZDzOGTmrpcQAj9KrEOxm-10" style="edgeStyle=orthogonalEdgeStyle;rounded=0;orthogonalLoop=1;jettySize=auto;html=1;exitX=0.5;exitY=1;exitDx=0;exitDy=0;entryX=0.5;entryY=0;entryDx=0;entryDy=0;" edge="1" parent="1" source="ZDzOGTmrpcQAj9KrEOxm-7" target="ZDzOGTmrpcQAj9KrEOxm-9">
          <mxGeometry relative="1" as="geometry" />
        </mxCell>
        <mxCell id="ZDzOGTmrpcQAj9KrEOxm-7" value="LSTNet" style="rounded=0;whiteSpace=wrap;html=1;fillColor=#f8cecc;strokeColor=#b85450;" vertex="1" parent="1">
          <mxGeometry x="520" y="190" width="120" height="60" as="geometry" />
        </mxCell>
        <mxCell id="ZDzOGTmrpcQAj9KrEOxm-11" style="edgeStyle=orthogonalEdgeStyle;rounded=0;orthogonalLoop=1;jettySize=auto;html=1;exitX=0.5;exitY=1;exitDx=0;exitDy=0;entryX=0.812;entryY=-0.04;entryDx=0;entryDy=0;entryPerimeter=0;" edge="1" parent="1" source="ZDzOGTmrpcQAj9KrEOxm-9" target="ZDzOGTmrpcQAj9KrEOxm-1">
          <mxGeometry relative="1" as="geometry" />
        </mxCell>
        <mxCell id="ZDzOGTmrpcQAj9KrEOxm-9" value="H&#39;&lt;sub&gt;t&lt;/sub&gt;" style="rounded=0;whiteSpace=wrap;html=1;" vertex="1" parent="1">
          <mxGeometry x="560" y="285" width="40" height="20" as="geometry" />
        </mxCell>
        <mxCell id="ZDzOGTmrpcQAj9KrEOxm-14" style="edgeStyle=orthogonalEdgeStyle;rounded=0;orthogonalLoop=1;jettySize=auto;html=1;exitX=0.538;exitY=1.08;exitDx=0;exitDy=0;entryX=0.5;entryY=0;entryDx=0;entryDy=0;exitPerimeter=0;" edge="1" parent="1">
          <mxGeometry relative="1" as="geometry">
            <mxPoint x="579.59" y="142.4" as="sourcePoint" />
            <mxPoint x="580.41" y="190" as="targetPoint" />
          </mxGeometry>
        </mxCell>
        <mxCell id="ZDzOGTmrpcQAj9KrEOxm-13" value="H(t)" style="rounded=0;whiteSpace=wrap;html=1;" vertex="1" parent="1">
          <mxGeometry x="520" y="110" width="110" height="30" as="geometry" />
        </mxCell>
        <mxCell id="ZDzOGTmrpcQAj9KrEOxm-16" style="edgeStyle=orthogonalEdgeStyle;rounded=0;orthogonalLoop=1;jettySize=auto;html=1;exitX=0.5;exitY=1;exitDx=0;exitDy=0;entryX=0.316;entryY=0;entryDx=0;entryDy=0;entryPerimeter=0;" edge="1" parent="1">
          <mxGeometry relative="1" as="geometry">
            <mxPoint x="448" y="380" as="sourcePoint" />
            <mxPoint x="446" y="400" as="targetPoint" />
          </mxGeometry>
        </mxCell>
        <mxCell id="ZDzOGTmrpcQAj9KrEOxm-17" value="" style="endArrow=none;dashed=1;html=1;dashPattern=1 3;strokeWidth=2;rounded=0;entryX=0;entryY=0.5;entryDx=0;entryDy=0;exitX=1;exitY=0.5;exitDx=0;exitDy=0;" edge="1" parent="1" source="ZDzOGTmrpcQAj9KrEOxm-19" target="ZDzOGTmrpcQAj9KrEOxm-7">
          <mxGeometry width="50" height="50" relative="1" as="geometry">
            <mxPoint x="480" y="230" as="sourcePoint" />
            <mxPoint x="390" y="210" as="targetPoint" />
          </mxGeometry>
        </mxCell>
        <mxCell id="ZDzOGTmrpcQAj9KrEOxm-19" value="" style="rounded=0;whiteSpace=wrap;html=1;dashed=1;fillColor=#f8cecc;strokeColor=#b85450;" vertex="1" parent="1">
          <mxGeometry x="240" y="100" width="220" height="150" as="geometry" />
        </mxCell>
        <mxCell id="ZDzOGTmrpcQAj9KrEOxm-76" value="" style="group" vertex="1" connectable="0" parent="1">
          <mxGeometry x="-110" y="235" width="60" height="80" as="geometry" />
        </mxCell>
        <mxCell id="ZDzOGTmrpcQAj9KrEOxm-21" value="" style="whiteSpace=wrap;html=1;aspect=fixed;strokeWidth=0;" vertex="1" parent="ZDzOGTmrpcQAj9KrEOxm-76">
          <mxGeometry x="10" width="10" height="10" as="geometry" />
        </mxCell>
        <mxCell id="ZDzOGTmrpcQAj9KrEOxm-24" value="" style="whiteSpace=wrap;html=1;aspect=fixed;strokeWidth=0;" vertex="1" parent="ZDzOGTmrpcQAj9KrEOxm-76">
          <mxGeometry x="20" width="10" height="10" as="geometry" />
        </mxCell>
        <mxCell id="ZDzOGTmrpcQAj9KrEOxm-25" value="" style="whiteSpace=wrap;html=1;aspect=fixed;strokeWidth=0;" vertex="1" parent="ZDzOGTmrpcQAj9KrEOxm-76">
          <mxGeometry x="30" width="10" height="10" as="geometry" />
        </mxCell>
        <mxCell id="ZDzOGTmrpcQAj9KrEOxm-26" value="" style="whiteSpace=wrap;html=1;aspect=fixed;strokeWidth=0;" vertex="1" parent="ZDzOGTmrpcQAj9KrEOxm-76">
          <mxGeometry x="40" width="10" height="10" as="geometry" />
        </mxCell>
        <mxCell id="ZDzOGTmrpcQAj9KrEOxm-27" value="" style="whiteSpace=wrap;html=1;aspect=fixed;strokeWidth=0;" vertex="1" parent="ZDzOGTmrpcQAj9KrEOxm-76">
          <mxGeometry x="50" width="10" height="10" as="geometry" />
        </mxCell>
        <mxCell id="ZDzOGTmrpcQAj9KrEOxm-28" value="" style="whiteSpace=wrap;html=1;aspect=fixed;strokeWidth=0;" vertex="1" parent="ZDzOGTmrpcQAj9KrEOxm-76">
          <mxGeometry x="40" y="10" width="10" height="10" as="geometry" />
        </mxCell>
        <mxCell id="ZDzOGTmrpcQAj9KrEOxm-29" value="" style="whiteSpace=wrap;html=1;aspect=fixed;strokeWidth=0;" vertex="1" parent="ZDzOGTmrpcQAj9KrEOxm-76">
          <mxGeometry x="50" y="10" width="10" height="10" as="geometry" />
        </mxCell>
        <mxCell id="ZDzOGTmrpcQAj9KrEOxm-30" value="" style="whiteSpace=wrap;html=1;aspect=fixed;strokeWidth=0;" vertex="1" parent="ZDzOGTmrpcQAj9KrEOxm-76">
          <mxGeometry x="20" y="10" width="10" height="10" as="geometry" />
        </mxCell>
        <mxCell id="ZDzOGTmrpcQAj9KrEOxm-31" value="" style="whiteSpace=wrap;html=1;aspect=fixed;strokeWidth=0;" vertex="1" parent="ZDzOGTmrpcQAj9KrEOxm-76">
          <mxGeometry x="30" y="10" width="10" height="10" as="geometry" />
        </mxCell>
        <mxCell id="ZDzOGTmrpcQAj9KrEOxm-32" value="" style="whiteSpace=wrap;html=1;aspect=fixed;strokeWidth=0;" vertex="1" parent="ZDzOGTmrpcQAj9KrEOxm-76">
          <mxGeometry x="10" y="10" width="10" height="10" as="geometry" />
        </mxCell>
        <mxCell id="ZDzOGTmrpcQAj9KrEOxm-33" value="" style="whiteSpace=wrap;html=1;aspect=fixed;strokeWidth=0;" vertex="1" parent="ZDzOGTmrpcQAj9KrEOxm-76">
          <mxGeometry x="10" y="20" width="10" height="10" as="geometry" />
        </mxCell>
        <mxCell id="ZDzOGTmrpcQAj9KrEOxm-34" value="" style="whiteSpace=wrap;html=1;aspect=fixed;strokeWidth=0;" vertex="1" parent="ZDzOGTmrpcQAj9KrEOxm-76">
          <mxGeometry x="20" y="20" width="10" height="10" as="geometry" />
        </mxCell>
        <mxCell id="ZDzOGTmrpcQAj9KrEOxm-35" value="" style="whiteSpace=wrap;html=1;aspect=fixed;strokeWidth=0;" vertex="1" parent="ZDzOGTmrpcQAj9KrEOxm-76">
          <mxGeometry x="30" y="20" width="10" height="10" as="geometry" />
        </mxCell>
        <mxCell id="ZDzOGTmrpcQAj9KrEOxm-36" value="" style="whiteSpace=wrap;html=1;aspect=fixed;strokeWidth=0;" vertex="1" parent="ZDzOGTmrpcQAj9KrEOxm-76">
          <mxGeometry x="40" y="20" width="10" height="10" as="geometry" />
        </mxCell>
        <mxCell id="ZDzOGTmrpcQAj9KrEOxm-37" value="" style="whiteSpace=wrap;html=1;aspect=fixed;strokeWidth=0;" vertex="1" parent="ZDzOGTmrpcQAj9KrEOxm-76">
          <mxGeometry x="50" y="20" width="10" height="10" as="geometry" />
        </mxCell>
        <mxCell id="ZDzOGTmrpcQAj9KrEOxm-38" value="" style="whiteSpace=wrap;html=1;aspect=fixed;strokeWidth=0;" vertex="1" parent="ZDzOGTmrpcQAj9KrEOxm-76">
          <mxGeometry x="40" y="30" width="10" height="10" as="geometry" />
        </mxCell>
        <mxCell id="ZDzOGTmrpcQAj9KrEOxm-39" value="" style="whiteSpace=wrap;html=1;aspect=fixed;strokeWidth=0;" vertex="1" parent="ZDzOGTmrpcQAj9KrEOxm-76">
          <mxGeometry x="50" y="30" width="10" height="10" as="geometry" />
        </mxCell>
        <mxCell id="ZDzOGTmrpcQAj9KrEOxm-40" value="" style="whiteSpace=wrap;html=1;aspect=fixed;strokeWidth=0;" vertex="1" parent="ZDzOGTmrpcQAj9KrEOxm-76">
          <mxGeometry x="20" y="30" width="10" height="10" as="geometry" />
        </mxCell>
        <mxCell id="ZDzOGTmrpcQAj9KrEOxm-41" value="" style="whiteSpace=wrap;html=1;aspect=fixed;strokeWidth=0;" vertex="1" parent="ZDzOGTmrpcQAj9KrEOxm-76">
          <mxGeometry x="30" y="30" width="10" height="10" as="geometry" />
        </mxCell>
        <mxCell id="ZDzOGTmrpcQAj9KrEOxm-42" value="" style="whiteSpace=wrap;html=1;aspect=fixed;strokeWidth=0;" vertex="1" parent="ZDzOGTmrpcQAj9KrEOxm-76">
          <mxGeometry x="10" y="30" width="10" height="10" as="geometry" />
        </mxCell>
        <mxCell id="ZDzOGTmrpcQAj9KrEOxm-43" value="" style="whiteSpace=wrap;html=1;aspect=fixed;strokeWidth=0;" vertex="1" parent="ZDzOGTmrpcQAj9KrEOxm-76">
          <mxGeometry x="10" y="40" width="10" height="10" as="geometry" />
        </mxCell>
        <mxCell id="ZDzOGTmrpcQAj9KrEOxm-44" value="" style="whiteSpace=wrap;html=1;aspect=fixed;strokeWidth=0;" vertex="1" parent="ZDzOGTmrpcQAj9KrEOxm-76">
          <mxGeometry x="20" y="40" width="10" height="10" as="geometry" />
        </mxCell>
        <mxCell id="ZDzOGTmrpcQAj9KrEOxm-45" value="" style="whiteSpace=wrap;html=1;aspect=fixed;strokeWidth=0;" vertex="1" parent="ZDzOGTmrpcQAj9KrEOxm-76">
          <mxGeometry x="30" y="40" width="10" height="10" as="geometry" />
        </mxCell>
        <mxCell id="ZDzOGTmrpcQAj9KrEOxm-46" value="" style="whiteSpace=wrap;html=1;aspect=fixed;strokeWidth=0;" vertex="1" parent="ZDzOGTmrpcQAj9KrEOxm-76">
          <mxGeometry x="40" y="40" width="10" height="10" as="geometry" />
        </mxCell>
        <mxCell id="ZDzOGTmrpcQAj9KrEOxm-47" value="" style="whiteSpace=wrap;html=1;aspect=fixed;strokeWidth=0;" vertex="1" parent="ZDzOGTmrpcQAj9KrEOxm-76">
          <mxGeometry x="50" y="40" width="10" height="10" as="geometry" />
        </mxCell>
        <mxCell id="ZDzOGTmrpcQAj9KrEOxm-48" value="" style="whiteSpace=wrap;html=1;aspect=fixed;strokeWidth=0;" vertex="1" parent="ZDzOGTmrpcQAj9KrEOxm-76">
          <mxGeometry x="40" y="50" width="10" height="10" as="geometry" />
        </mxCell>
        <mxCell id="ZDzOGTmrpcQAj9KrEOxm-49" value="" style="whiteSpace=wrap;html=1;aspect=fixed;strokeWidth=0;" vertex="1" parent="ZDzOGTmrpcQAj9KrEOxm-76">
          <mxGeometry x="50" y="50" width="10" height="10" as="geometry" />
        </mxCell>
        <mxCell id="ZDzOGTmrpcQAj9KrEOxm-50" value="" style="whiteSpace=wrap;html=1;aspect=fixed;strokeWidth=0;" vertex="1" parent="ZDzOGTmrpcQAj9KrEOxm-76">
          <mxGeometry x="20" y="50" width="10" height="10" as="geometry" />
        </mxCell>
        <mxCell id="ZDzOGTmrpcQAj9KrEOxm-51" value="" style="whiteSpace=wrap;html=1;aspect=fixed;strokeWidth=0;" vertex="1" parent="ZDzOGTmrpcQAj9KrEOxm-76">
          <mxGeometry x="30" y="50" width="10" height="10" as="geometry" />
        </mxCell>
        <mxCell id="ZDzOGTmrpcQAj9KrEOxm-52" value="" style="whiteSpace=wrap;html=1;aspect=fixed;strokeWidth=0;" vertex="1" parent="ZDzOGTmrpcQAj9KrEOxm-76">
          <mxGeometry x="10" y="50" width="10" height="10" as="geometry" />
        </mxCell>
        <mxCell id="ZDzOGTmrpcQAj9KrEOxm-54" value="" style="rounded=0;whiteSpace=wrap;html=1;strokeColor=#FF0808;fillColor=none;" vertex="1" parent="ZDzOGTmrpcQAj9KrEOxm-76">
          <mxGeometry x="10" width="50" height="20" as="geometry" />
        </mxCell>
        <mxCell id="ZDzOGTmrpcQAj9KrEOxm-55" value="" style="whiteSpace=wrap;html=1;aspect=fixed;strokeWidth=0;" vertex="1" parent="ZDzOGTmrpcQAj9KrEOxm-76">
          <mxGeometry x="40" y="60" width="10" height="10" as="geometry" />
        </mxCell>
        <mxCell id="ZDzOGTmrpcQAj9KrEOxm-56" value="" style="whiteSpace=wrap;html=1;aspect=fixed;strokeWidth=0;" vertex="1" parent="ZDzOGTmrpcQAj9KrEOxm-76">
          <mxGeometry x="50" y="60" width="10" height="10" as="geometry" />
        </mxCell>
        <mxCell id="ZDzOGTmrpcQAj9KrEOxm-57" value="" style="whiteSpace=wrap;html=1;aspect=fixed;strokeWidth=0;" vertex="1" parent="ZDzOGTmrpcQAj9KrEOxm-76">
          <mxGeometry x="20" y="60" width="10" height="10" as="geometry" />
        </mxCell>
        <mxCell id="ZDzOGTmrpcQAj9KrEOxm-58" value="" style="whiteSpace=wrap;html=1;aspect=fixed;strokeWidth=0;" vertex="1" parent="ZDzOGTmrpcQAj9KrEOxm-76">
          <mxGeometry x="30" y="60" width="10" height="10" as="geometry" />
        </mxCell>
        <mxCell id="ZDzOGTmrpcQAj9KrEOxm-59" value="" style="whiteSpace=wrap;html=1;aspect=fixed;strokeWidth=0;" vertex="1" parent="ZDzOGTmrpcQAj9KrEOxm-76">
          <mxGeometry x="10" y="60" width="10" height="10" as="geometry" />
        </mxCell>
        <mxCell id="ZDzOGTmrpcQAj9KrEOxm-61" value="" style="whiteSpace=wrap;html=1;aspect=fixed;strokeWidth=0;" vertex="1" parent="ZDzOGTmrpcQAj9KrEOxm-76">
          <mxGeometry x="40" y="70" width="10" height="10" as="geometry" />
        </mxCell>
        <mxCell id="ZDzOGTmrpcQAj9KrEOxm-62" value="" style="whiteSpace=wrap;html=1;aspect=fixed;strokeWidth=0;" vertex="1" parent="ZDzOGTmrpcQAj9KrEOxm-76">
          <mxGeometry x="50" y="70" width="10" height="10" as="geometry" />
        </mxCell>
        <mxCell id="ZDzOGTmrpcQAj9KrEOxm-63" value="" style="whiteSpace=wrap;html=1;aspect=fixed;strokeWidth=0;" vertex="1" parent="ZDzOGTmrpcQAj9KrEOxm-76">
          <mxGeometry x="20" y="70" width="10" height="10" as="geometry" />
        </mxCell>
        <mxCell id="ZDzOGTmrpcQAj9KrEOxm-64" value="" style="whiteSpace=wrap;html=1;aspect=fixed;strokeWidth=0;" vertex="1" parent="ZDzOGTmrpcQAj9KrEOxm-76">
          <mxGeometry x="30" y="70" width="10" height="10" as="geometry" />
        </mxCell>
        <mxCell id="ZDzOGTmrpcQAj9KrEOxm-65" value="" style="whiteSpace=wrap;html=1;aspect=fixed;strokeWidth=0;" vertex="1" parent="ZDzOGTmrpcQAj9KrEOxm-76">
          <mxGeometry x="10" y="70" width="10" height="10" as="geometry" />
        </mxCell>
        <mxCell id="ZDzOGTmrpcQAj9KrEOxm-60" value="" style="rounded=0;whiteSpace=wrap;html=1;strokeColor=#FF0808;fillColor=none;" vertex="1" parent="ZDzOGTmrpcQAj9KrEOxm-76">
          <mxGeometry x="10" y="60" width="50" height="20" as="geometry" />
        </mxCell>
        <mxCell id="ZDzOGTmrpcQAj9KrEOxm-81" value="" style="shape=singleArrow;direction=south;whiteSpace=wrap;html=1;fillColor=default;strokeColor=#82b366;arrowWidth=0.40000000000001135;arrowSize=0.55;" vertex="1" parent="ZDzOGTmrpcQAj9KrEOxm-76">
          <mxGeometry x="30" y="10" width="10" height="20" as="geometry" />
        </mxCell>
        <mxCell id="ZDzOGTmrpcQAj9KrEOxm-83" value="" style="shape=singleArrow;direction=south;whiteSpace=wrap;html=1;fillColor=default;strokeColor=#82b366;arrowWidth=0.40000000000001135;arrowSize=0.55;" vertex="1" parent="ZDzOGTmrpcQAj9KrEOxm-76">
          <mxGeometry x="30" y="40" width="10" height="20" as="geometry" />
        </mxCell>
        <mxCell id="ZDzOGTmrpcQAj9KrEOxm-92" value="" style="rounded=0;whiteSpace=wrap;html=1;strokeColor=#FF0808;fillColor=none;" vertex="1" parent="ZDzOGTmrpcQAj9KrEOxm-76">
          <mxGeometry x="10" y="30" width="50" height="20" as="geometry" />
        </mxCell>
        <mxCell id="ZDzOGTmrpcQAj9KrEOxm-84" value="" style="endArrow=classic;html=1;rounded=0;" edge="1" parent="1">
          <mxGeometry width="50" height="50" relative="1" as="geometry">
            <mxPoint x="-110.28" y="240" as="sourcePoint" />
            <mxPoint x="-110.28" y="310" as="targetPoint" />
          </mxGeometry>
        </mxCell>
        <mxCell id="ZDzOGTmrpcQAj9KrEOxm-85" value="&lt;font face=&quot;Times New Roman&quot;&gt;Time&lt;/font&gt;" style="text;html=1;strokeColor=none;fillColor=none;align=center;verticalAlign=middle;whiteSpace=wrap;rounded=0;fontSize=10;" vertex="1" parent="1">
          <mxGeometry x="-140" y="272.5" width="30" height="5" as="geometry" />
        </mxCell>
        <mxCell id="ZDzOGTmrpcQAj9KrEOxm-98" style="rounded=1;orthogonalLoop=1;jettySize=auto;html=1;exitX=1;exitY=0;exitDx=0;exitDy=0;entryX=0;entryY=0;entryDx=0;entryDy=0;endArrow=none;endFill=0;dashed=1;dashPattern=1 4;fillColor=#f8cecc;strokeColor=#ff0800;startSize=0;endSize=2;fontFamily=Georgia;" edge="1" parent="1" source="ZDzOGTmrpcQAj9KrEOxm-54" target="ZDzOGTmrpcQAj9KrEOxm-86">
          <mxGeometry relative="1" as="geometry">
            <mxPoint x="-50" y="230" as="sourcePoint" />
            <mxPoint x="40" y="235" as="targetPoint" />
          </mxGeometry>
        </mxCell>
        <mxCell id="ZDzOGTmrpcQAj9KrEOxm-99" style="rounded=1;orthogonalLoop=1;jettySize=auto;html=1;exitX=1;exitY=1;exitDx=0;exitDy=0;entryX=0;entryY=0;entryDx=0;entryDy=0;endArrow=none;endFill=0;dashed=1;dashPattern=1 4;fillColor=#f8cecc;strokeColor=#FF0000;" edge="1" parent="1" source="ZDzOGTmrpcQAj9KrEOxm-54" target="ZDzOGTmrpcQAj9KrEOxm-87">
          <mxGeometry relative="1" as="geometry">
            <mxPoint x="-50" y="240" as="sourcePoint" />
            <mxPoint x="40" y="245" as="targetPoint" />
          </mxGeometry>
        </mxCell>
        <mxCell id="ZDzOGTmrpcQAj9KrEOxm-104" style="rounded=1;orthogonalLoop=1;jettySize=auto;html=1;exitX=1;exitY=0;exitDx=0;exitDy=0;entryX=0;entryY=1;entryDx=0;entryDy=0;endArrow=none;endFill=0;dashed=1;dashPattern=1 4;fillColor=#f8cecc;strokeColor=#ff0800;startSize=0;endSize=2;" edge="1" parent="1" source="ZDzOGTmrpcQAj9KrEOxm-92" target="ZDzOGTmrpcQAj9KrEOxm-88">
          <mxGeometry relative="1" as="geometry">
            <mxPoint x="-40" y="240" as="sourcePoint" />
            <mxPoint x="20" y="245" as="targetPoint" />
          </mxGeometry>
        </mxCell>
        <mxCell id="ZDzOGTmrpcQAj9KrEOxm-105" style="rounded=1;orthogonalLoop=1;jettySize=auto;html=1;exitX=1;exitY=1;exitDx=0;exitDy=0;entryX=0;entryY=0;entryDx=0;entryDy=0;endArrow=none;endFill=0;dashed=1;dashPattern=1 4;fillColor=#f8cecc;strokeColor=#FF0000;" edge="1" parent="1" source="ZDzOGTmrpcQAj9KrEOxm-92" target="ZDzOGTmrpcQAj9KrEOxm-90">
          <mxGeometry relative="1" as="geometry">
            <mxPoint x="-40" y="260" as="sourcePoint" />
            <mxPoint x="20" y="255" as="targetPoint" />
          </mxGeometry>
        </mxCell>
        <mxCell id="ZDzOGTmrpcQAj9KrEOxm-106" style="rounded=1;orthogonalLoop=1;jettySize=auto;html=1;exitX=1;exitY=0;exitDx=0;exitDy=0;entryX=0;entryY=1;entryDx=0;entryDy=0;endArrow=none;endFill=0;dashed=1;dashPattern=1 4;fillColor=#f8cecc;strokeColor=#FF0000;" edge="1" parent="1" source="ZDzOGTmrpcQAj9KrEOxm-60" target="ZDzOGTmrpcQAj9KrEOxm-91">
          <mxGeometry relative="1" as="geometry">
            <mxPoint x="-30" y="270" as="sourcePoint" />
            <mxPoint x="30" y="265" as="targetPoint" />
          </mxGeometry>
        </mxCell>
        <mxCell id="ZDzOGTmrpcQAj9KrEOxm-107" style="rounded=1;orthogonalLoop=1;jettySize=auto;html=1;exitX=1;exitY=1;exitDx=0;exitDy=0;entryX=-0.167;entryY=0.922;entryDx=0;entryDy=0;endArrow=none;endFill=0;dashed=1;dashPattern=1 4;fillColor=#f8cecc;strokeColor=#FF0000;entryPerimeter=0;" edge="1" parent="1" source="ZDzOGTmrpcQAj9KrEOxm-60" target="ZDzOGTmrpcQAj9KrEOxm-100">
          <mxGeometry relative="1" as="geometry">
            <mxPoint x="-40" y="300" as="sourcePoint" />
            <mxPoint x="20" y="305" as="targetPoint" />
          </mxGeometry>
        </mxCell>
        <mxCell id="ZDzOGTmrpcQAj9KrEOxm-144" style="edgeStyle=orthogonalEdgeStyle;rounded=0;orthogonalLoop=1;jettySize=auto;html=1;exitX=0.5;exitY=1;exitDx=0;exitDy=0;entryX=0.5;entryY=0;entryDx=0;entryDy=0;endSize=1;" edge="1" parent="1" source="ZDzOGTmrpcQAj9KrEOxm-109" target="ZDzOGTmrpcQAj9KrEOxm-110">
          <mxGeometry relative="1" as="geometry" />
        </mxCell>
        <mxCell id="ZDzOGTmrpcQAj9KrEOxm-109" value="" style="ellipse;whiteSpace=wrap;html=1;aspect=fixed;fillColor=#dae8fc;strokeColor=#6c8ebf;" vertex="1" parent="1">
          <mxGeometry x="50" y="245" width="10" height="10" as="geometry" />
        </mxCell>
        <mxCell id="ZDzOGTmrpcQAj9KrEOxm-110" value="" style="ellipse;whiteSpace=wrap;html=1;aspect=fixed;fillColor=#dae8fc;strokeColor=#6c8ebf;" vertex="1" parent="1">
          <mxGeometry x="50" y="265" width="10" height="10" as="geometry" />
        </mxCell>
        <mxCell id="ZDzOGTmrpcQAj9KrEOxm-87" value="" style="whiteSpace=wrap;html=1;aspect=fixed;strokeWidth=0;" vertex="1" parent="1">
          <mxGeometry x="10" y="270" width="10" height="10" as="geometry" />
        </mxCell>
        <mxCell id="ZDzOGTmrpcQAj9KrEOxm-86" value="" style="whiteSpace=wrap;html=1;aspect=fixed;strokeWidth=1;strokeColor=#ff0000;" vertex="1" parent="1">
          <mxGeometry x="10" y="260" width="10" height="10" as="geometry" />
        </mxCell>
        <mxCell id="ZDzOGTmrpcQAj9KrEOxm-88" value="" style="whiteSpace=wrap;html=1;aspect=fixed;strokeWidth=0;" vertex="1" parent="1">
          <mxGeometry x="10" y="280" width="10" height="10" as="geometry" />
        </mxCell>
        <mxCell id="ZDzOGTmrpcQAj9KrEOxm-90" value="" style="whiteSpace=wrap;html=1;aspect=fixed;strokeWidth=0;" vertex="1" parent="1">
          <mxGeometry x="10" y="300" width="10" height="10" as="geometry" />
        </mxCell>
        <mxCell id="ZDzOGTmrpcQAj9KrEOxm-91" value="" style="whiteSpace=wrap;html=1;aspect=fixed;strokeWidth=0;" vertex="1" parent="1">
          <mxGeometry x="10" y="310" width="10" height="10" as="geometry" />
        </mxCell>
        <mxCell id="ZDzOGTmrpcQAj9KrEOxm-100" value="" style="whiteSpace=wrap;html=1;aspect=fixed;strokeWidth=1;strokeColor=#ff0000;" vertex="1" parent="1">
          <mxGeometry x="10" y="320" width="10" height="10" as="geometry" />
        </mxCell>
        <mxCell id="ZDzOGTmrpcQAj9KrEOxm-101" value="" style="whiteSpace=wrap;html=1;aspect=fixed;strokeWidth=1;strokeColor=#ff0000;" vertex="1" parent="1">
          <mxGeometry x="10" y="290" width="10" height="10" as="geometry" />
        </mxCell>
        <mxCell id="ZDzOGTmrpcQAj9KrEOxm-138" value="" style="ellipse;whiteSpace=wrap;html=1;aspect=fixed;fillColor=#dae8fc;strokeColor=#6c8ebf;" vertex="1" parent="1">
          <mxGeometry x="50" y="305" width="10" height="10" as="geometry" />
        </mxCell>
        <mxCell id="ZDzOGTmrpcQAj9KrEOxm-139" value="" style="ellipse;whiteSpace=wrap;html=1;aspect=fixed;fillColor=#dae8fc;strokeColor=#6c8ebf;" vertex="1" parent="1">
          <mxGeometry x="79" y="245" width="10" height="10" as="geometry" />
        </mxCell>
        <mxCell id="ZDzOGTmrpcQAj9KrEOxm-140" value="" style="ellipse;whiteSpace=wrap;html=1;aspect=fixed;fillColor=#dae8fc;strokeColor=#6c8ebf;" vertex="1" parent="1">
          <mxGeometry x="79.5" y="265" width="10" height="10" as="geometry" />
        </mxCell>
        <mxCell id="ZDzOGTmrpcQAj9KrEOxm-142" value="" style="ellipse;whiteSpace=wrap;html=1;aspect=fixed;fillColor=#dae8fc;strokeColor=#6c8ebf;" vertex="1" parent="1">
          <mxGeometry x="79.5" y="310" width="10" height="10" as="geometry" />
        </mxCell>
        <mxCell id="ZDzOGTmrpcQAj9KrEOxm-143" value="" style="ellipse;whiteSpace=wrap;html=1;aspect=fixed;fillColor=#dae8fc;strokeColor=#6c8ebf;" vertex="1" parent="1">
          <mxGeometry x="79.5" y="330" width="10" height="10" as="geometry" />
        </mxCell>
        <mxCell id="ZDzOGTmrpcQAj9KrEOxm-145" style="edgeStyle=orthogonalEdgeStyle;rounded=0;orthogonalLoop=1;jettySize=auto;html=1;exitX=0.5;exitY=1;exitDx=0;exitDy=0;entryX=0.5;entryY=0;entryDx=0;entryDy=0;endSize=1;" edge="1" parent="1" source="ZDzOGTmrpcQAj9KrEOxm-110">
          <mxGeometry relative="1" as="geometry">
            <mxPoint x="65" y="265" as="sourcePoint" />
            <mxPoint x="55" y="285.00000000000006" as="targetPoint" />
          </mxGeometry>
        </mxCell>
        <mxCell id="ZDzOGTmrpcQAj9KrEOxm-146" style="edgeStyle=orthogonalEdgeStyle;rounded=0;orthogonalLoop=1;jettySize=auto;html=1;exitX=0.5;exitY=1;exitDx=0;exitDy=0;entryX=0.5;entryY=0;entryDx=0;entryDy=0;endSize=1;" edge="1" parent="1" target="ZDzOGTmrpcQAj9KrEOxm-138">
          <mxGeometry relative="1" as="geometry">
            <mxPoint x="55" y="295.00000000000006" as="sourcePoint" />
            <mxPoint x="65" y="295" as="targetPoint" />
          </mxGeometry>
        </mxCell>
        <mxCell id="ZDzOGTmrpcQAj9KrEOxm-147" style="edgeStyle=orthogonalEdgeStyle;rounded=0;orthogonalLoop=1;jettySize=auto;html=1;exitX=0.5;exitY=1;exitDx=0;exitDy=0;entryX=0.5;entryY=0;entryDx=0;entryDy=0;endSize=1;" edge="1" parent="1">
          <mxGeometry relative="1" as="geometry">
            <mxPoint x="54.92" y="235" as="sourcePoint" />
            <mxPoint x="54.92" y="245" as="targetPoint" />
          </mxGeometry>
        </mxCell>
        <mxCell id="ZDzOGTmrpcQAj9KrEOxm-149" value="&lt;font face=&quot;Georgia&quot; style=&quot;font-size: 6px;&quot;&gt;···&lt;/font&gt;" style="text;html=1;strokeColor=none;fillColor=none;align=center;verticalAlign=middle;whiteSpace=wrap;rounded=0;rotation=-89;points=[[0,0,0,0,0],[0,0.25,0,0,0],[0,0.5,0,0,0],[0,0.75,0,0,0],[0,1,0,0,0],[0.25,0,0,0,0],[0.25,1,0,0,0],[0.5,0,0,0,0],[0.5,0.32,0,0,0],[0.5,1,0,0,0],[0.75,0,0,0,0],[1,0,0,0,0],[1,0.25,0,0,0],[1,0.5,0,0,0],[1,0.75,0,0,0],[1,1,0,0,0]];" vertex="1" parent="1">
          <mxGeometry x="49.5" y="286.87" width="10" height="6.25" as="geometry" />
        </mxCell>
        <mxCell id="ZDzOGTmrpcQAj9KrEOxm-155" value="&lt;font face=&quot;Georgia&quot; style=&quot;font-size: 11px;&quot;&gt;···&lt;/font&gt;" style="text;html=1;strokeColor=none;fillColor=none;align=center;verticalAlign=middle;whiteSpace=wrap;rounded=0;rotation=-89;" vertex="1" parent="1">
          <mxGeometry x="79" y="233.75" width="10" height="6.25" as="geometry" />
        </mxCell>
        <mxCell id="ZDzOGTmrpcQAj9KrEOxm-159" style="rounded=0;orthogonalLoop=1;jettySize=auto;html=1;exitX=1;exitY=0.5;exitDx=0;exitDy=0;entryX=0;entryY=0.5;entryDx=0;entryDy=0;endSize=1;" edge="1" parent="1" source="ZDzOGTmrpcQAj9KrEOxm-101" target="ZDzOGTmrpcQAj9KrEOxm-110">
          <mxGeometry relative="1" as="geometry">
            <mxPoint x="64.92" y="245" as="sourcePoint" />
            <mxPoint x="64.92" y="255" as="targetPoint" />
          </mxGeometry>
        </mxCell>
        <mxCell id="ZDzOGTmrpcQAj9KrEOxm-173" value="&lt;font face=&quot;Georgia&quot; style=&quot;font-size: 6px;&quot;&gt;···&lt;/font&gt;" style="text;html=1;strokeColor=none;fillColor=none;align=center;verticalAlign=middle;whiteSpace=wrap;rounded=0;rotation=-89;points=[[0,0,0,0,0],[0,0.25,0,0,0],[0,0.5,0,0,0],[0,0.75,0,0,0],[0,1,0,0,0],[0.25,0,0,0,0],[0.25,1,0,0,0],[0.5,0,0,0,0],[0.5,0.32,0,0,0],[0.5,1,0,0,0],[0.75,0,0,0,0],[1,0,0,0,0],[1,0.25,0,0,0],[1,0.5,0,0,0],[1,0.75,0,0,0],[1,1,0,0,0]];" vertex="1" parent="1">
          <mxGeometry x="79" y="290" width="10" height="6.25" as="geometry" />
        </mxCell>
        <mxCell id="ZDzOGTmrpcQAj9KrEOxm-161" style="rounded=0;orthogonalLoop=1;jettySize=auto;html=1;exitX=1;exitY=0.5;exitDx=0;exitDy=0;entryX=0;entryY=0.5;entryDx=0;entryDy=0;endSize=1;" edge="1" parent="1" source="ZDzOGTmrpcQAj9KrEOxm-101" target="ZDzOGTmrpcQAj9KrEOxm-140">
          <mxGeometry relative="1" as="geometry">
            <mxPoint x="30" y="305" as="sourcePoint" />
            <mxPoint x="60" y="280" as="targetPoint" />
          </mxGeometry>
        </mxCell>
        <mxCell id="ZDzOGTmrpcQAj9KrEOxm-176" style="rounded=0;orthogonalLoop=1;jettySize=auto;html=1;exitX=1;exitY=0.5;exitDx=0;exitDy=0;entryX=0;entryY=0.5;entryDx=0;entryDy=0;endSize=1;" edge="1" parent="1" source="ZDzOGTmrpcQAj9KrEOxm-100" target="ZDzOGTmrpcQAj9KrEOxm-138">
          <mxGeometry relative="1" as="geometry">
            <mxPoint x="30" y="305" as="sourcePoint" />
            <mxPoint x="60" y="280" as="targetPoint" />
          </mxGeometry>
        </mxCell>
        <mxCell id="ZDzOGTmrpcQAj9KrEOxm-177" style="rounded=0;orthogonalLoop=1;jettySize=auto;html=1;exitX=1;exitY=0.5;exitDx=0;exitDy=0;entryX=0;entryY=0.5;entryDx=0;entryDy=0;endSize=1;" edge="1" parent="1" source="ZDzOGTmrpcQAj9KrEOxm-100" target="ZDzOGTmrpcQAj9KrEOxm-143">
          <mxGeometry relative="1" as="geometry">
            <mxPoint x="40" y="315" as="sourcePoint" />
            <mxPoint x="70" y="290" as="targetPoint" />
          </mxGeometry>
        </mxCell>
        <mxCell id="ZDzOGTmrpcQAj9KrEOxm-179" style="rounded=1;orthogonalLoop=1;jettySize=auto;html=1;endSize=1;" edge="1" parent="1">
          <mxGeometry relative="1" as="geometry">
            <mxPoint x="99" y="240" as="sourcePoint" />
            <mxPoint x="89" y="250" as="targetPoint" />
            <Array as="points">
              <mxPoint x="99" y="250" />
            </Array>
          </mxGeometry>
        </mxCell>
        <mxCell id="ZDzOGTmrpcQAj9KrEOxm-180" style="rounded=1;orthogonalLoop=1;jettySize=auto;html=1;endSize=1;" edge="1" parent="1">
          <mxGeometry relative="1" as="geometry">
            <mxPoint x="99" y="260" as="sourcePoint" />
            <mxPoint x="89" y="270" as="targetPoint" />
            <Array as="points">
              <mxPoint x="99" y="270" />
            </Array>
          </mxGeometry>
        </mxCell>
        <mxCell id="ZDzOGTmrpcQAj9KrEOxm-181" style="rounded=1;orthogonalLoop=1;jettySize=auto;html=1;endSize=1;entryX=1;entryY=0.5;entryDx=0;entryDy=0;exitX=1;exitY=0.5;exitDx=0;exitDy=0;" edge="1" parent="1" source="ZDzOGTmrpcQAj9KrEOxm-139" target="ZDzOGTmrpcQAj9KrEOxm-142">
          <mxGeometry relative="1" as="geometry">
            <mxPoint x="120" y="270" as="sourcePoint" />
            <mxPoint x="110" y="280" as="targetPoint" />
            <Array as="points">
              <mxPoint x="100" y="290" />
            </Array>
          </mxGeometry>
        </mxCell>
        <mxCell id="ZDzOGTmrpcQAj9KrEOxm-183" style="rounded=1;orthogonalLoop=1;jettySize=auto;html=1;endSize=1;entryX=1;entryY=0.5;entryDx=0;entryDy=0;exitX=1;exitY=0.5;exitDx=0;exitDy=0;" edge="1" parent="1" source="ZDzOGTmrpcQAj9KrEOxm-140" target="ZDzOGTmrpcQAj9KrEOxm-143">
          <mxGeometry relative="1" as="geometry">
            <mxPoint x="89.5" y="275" as="sourcePoint" />
            <mxPoint x="89.5" y="320" as="targetPoint" />
            <Array as="points">
              <mxPoint x="100" y="300" />
            </Array>
          </mxGeometry>
        </mxCell>
        <mxCell id="ZDzOGTmrpcQAj9KrEOxm-187" value="" style="ellipse;whiteSpace=wrap;html=1;aspect=fixed;fillColor=none;strokeColor=#000000;" vertex="1" parent="1">
          <mxGeometry x="140" y="250" width="10" height="10" as="geometry" />
        </mxCell>
        <mxCell id="ZDzOGTmrpcQAj9KrEOxm-188" value="" style="curved=1;endArrow=none;html=1;rounded=0;endFill=0;exitX=0.234;exitY=0.897;exitDx=0;exitDy=0;exitPerimeter=0;entryX=0.809;entryY=0.124;entryDx=0;entryDy=0;entryPerimeter=0;" edge="1" parent="1" source="ZDzOGTmrpcQAj9KrEOxm-187" target="ZDzOGTmrpcQAj9KrEOxm-187">
          <mxGeometry width="50" height="50" relative="1" as="geometry">
            <mxPoint x="140" y="260" as="sourcePoint" />
            <mxPoint x="150" y="250" as="targetPoint" />
            <Array as="points">
              <mxPoint x="150" y="260" />
              <mxPoint x="140" y="250" />
            </Array>
          </mxGeometry>
        </mxCell>
        <mxCell id="ZDzOGTmrpcQAj9KrEOxm-190" style="rounded=0;orthogonalLoop=1;jettySize=auto;html=1;exitX=1;exitY=0.5;exitDx=0;exitDy=0;entryX=0;entryY=1;entryDx=0;entryDy=0;endSize=1;fillColor=#d5e8d4;strokeColor=#82b366;gradientColor=#97d077;" edge="1" parent="1" source="ZDzOGTmrpcQAj9KrEOxm-138" target="ZDzOGTmrpcQAj9KrEOxm-187">
          <mxGeometry relative="1" as="geometry">
            <mxPoint x="30" y="335" as="sourcePoint" />
            <mxPoint x="60" y="320" as="targetPoint" />
          </mxGeometry>
        </mxCell>
        <mxCell id="ZDzOGTmrpcQAj9KrEOxm-191" style="rounded=0;orthogonalLoop=1;jettySize=auto;html=1;exitX=1;exitY=0.5;exitDx=0;exitDy=0;entryX=0;entryY=1;entryDx=0;entryDy=0;endSize=1;fillColor=#d5e8d4;strokeColor=#82b366;gradientColor=#97d077;" edge="1" parent="1" source="ZDzOGTmrpcQAj9KrEOxm-142" target="ZDzOGTmrpcQAj9KrEOxm-187">
          <mxGeometry relative="1" as="geometry">
            <mxPoint x="70" y="320" as="sourcePoint" />
            <mxPoint x="141" y="259" as="targetPoint" />
          </mxGeometry>
        </mxCell>
        <mxCell id="ZDzOGTmrpcQAj9KrEOxm-192" style="rounded=0;orthogonalLoop=1;jettySize=auto;html=1;exitX=1;exitY=0.5;exitDx=0;exitDy=0;entryX=0;entryY=1;entryDx=0;entryDy=0;endSize=1;fillColor=#d5e8d4;strokeColor=#82b366;gradientColor=#97d077;" edge="1" parent="1" source="ZDzOGTmrpcQAj9KrEOxm-143" target="ZDzOGTmrpcQAj9KrEOxm-187">
          <mxGeometry relative="1" as="geometry">
            <mxPoint x="80" y="330" as="sourcePoint" />
            <mxPoint x="151" y="269" as="targetPoint" />
          </mxGeometry>
        </mxCell>
        <mxCell id="ZDzOGTmrpcQAj9KrEOxm-193" value="" style="ellipse;whiteSpace=wrap;html=1;aspect=fixed;" vertex="1" parent="1">
          <mxGeometry x="140" y="296.25" width="10" height="10" as="geometry" />
        </mxCell>
        <mxCell id="ZDzOGTmrpcQAj9KrEOxm-194" style="edgeStyle=orthogonalEdgeStyle;rounded=0;orthogonalLoop=1;jettySize=auto;html=1;exitX=0.5;exitY=1;exitDx=0;exitDy=0;entryX=0.5;entryY=0;entryDx=0;entryDy=0;endSize=1;" edge="1" parent="1" source="ZDzOGTmrpcQAj9KrEOxm-187" target="ZDzOGTmrpcQAj9KrEOxm-193">
          <mxGeometry relative="1" as="geometry">
            <mxPoint x="64.92" y="245" as="sourcePoint" />
            <mxPoint x="64.92" y="255" as="targetPoint" />
          </mxGeometry>
        </mxCell>
        <mxCell id="ZDzOGTmrpcQAj9KrEOxm-195" style="edgeStyle=orthogonalEdgeStyle;rounded=0;orthogonalLoop=1;jettySize=auto;html=1;exitX=0.5;exitY=1;exitDx=0;exitDy=0;endSize=1;endArrow=none;endFill=0;entryX=1;entryY=0.5;entryDx=0;entryDy=0;" edge="1" parent="1" source="ZDzOGTmrpcQAj9KrEOxm-193" target="ZDzOGTmrpcQAj9KrEOxm-196">
          <mxGeometry relative="1" as="geometry">
            <mxPoint x="142.15" y="308.13" as="sourcePoint" />
            <mxPoint x="26.865384615384617" y="361.88" as="targetPoint" />
            <Array as="points">
              <mxPoint x="145" y="360" />
            </Array>
          </mxGeometry>
        </mxCell>
        <mxCell id="ZDzOGTmrpcQAj9KrEOxm-196" value="" style="rounded=0;whiteSpace=wrap;html=1;movable=1;resizable=1;rotatable=1;deletable=1;editable=1;locked=0;connectable=1;" vertex="1" parent="1">
          <mxGeometry x="-30" y="350" width="50" height="20" as="geometry" />
        </mxCell>
        <mxCell id="ZDzOGTmrpcQAj9KrEOxm-197" value="&lt;font style=&quot;font-size: 11px;&quot;&gt;Autoregressive&lt;/font&gt;" style="text;html=1;strokeColor=none;fillColor=none;align=center;verticalAlign=middle;whiteSpace=wrap;rounded=0;" vertex="1" parent="1">
          <mxGeometry x="-30" y="360" width="240" height="80" as="geometry" />
        </mxCell>
      </root>
    </mxGraphModel>
  </diagram>
</mxfile>
